<svg xmlns="http://www.w3.org/2000/svg" viewBox="0 0 100 104" width="400" height="416" role="img" aria-label="Flockie">
  <path d="M 50,92 C 36,68 26,58 26,42 A 24 24 0 1 1 74,42 C 74,58 64,68 50,92 Z" fill="#2C7CB2" transform="translate(0,4)"/>
  <path d="M 50,92 C 36,68 26,58 26,42 A 24 24 0 1 1 74,42 C 74,58 64,68 50,92 Z" fill="#4DA8DA"/>
  <ellipse cx="0" cy="0" rx="12" ry="7" transform="translate(51,44) rotate(-28)" fill="#E0512C"/>
  <ellipse cx="0" cy="0" rx="12" ry="7" transform="translate(51,42) rotate(-28)" fill="#FF6B4A"/>
  <polygon points="74,37 87,42 74,47" fill="#FF6B4A" stroke="#FF6B4A" stroke-width="3" stroke-linejoin="round"/>
  <polygon points="26,37 12,33 28,47" fill="#FF6B4A" stroke="#FF6B4A" stroke-width="3" stroke-linejoin="round"/>
  <circle cx="62" cy="35" r="3.6" fill="#0A2545"/>
  <circle cx="63.3" cy="33.7" r="1.2" fill="#fff"/>
</svg>
